<svg width="1498" height="1635" viewBox="0 0 1498 1635" fill="none" xmlns="http://www.w3.org/2000/svg">
<ellipse cx="735.777" cy="116.461" rx="735.777" ry="116.461" transform="matrix(-1 0 0 1 1497.54 1078.59)" fill="#77B076"/>
<path fill-rule="evenodd" clip-rule="evenodd" d="M751.81 549.762C751.81 784.704 848.194 998.086 1066.41 998.086C1284.63 998.086 1381.02 784.704 1381.02 549.762C1381.02 274.162 1216.11 0.105225 1066.41 0.105225C916.713 0.105225 751.81 274.162 751.81 549.762" fill="#2D692C"/>
<path d="M1066.41 499.096V1168.17" stroke="#4A311A" stroke-width="28" stroke-linecap="square"/>
<path d="M1059.81 804.91L974.664 708.512" stroke="#4A311A" stroke-width="28" stroke-linecap="square"/>
<path d="M1078.96 674.04L1164.11 577.64" stroke="#4A311A" stroke-width="28" stroke-linecap="square"/>
<path fill-rule="evenodd" clip-rule="evenodd" d="M958.26 1011.65L1000.51 1209.33H1028.45L986.206 1011.65H958.26Z" fill="#613B19"/>
<path fill-rule="evenodd" clip-rule="evenodd" d="M279.106 1011.65H1002.46V981.074H279.106V1011.65Z" fill="#A3744B"/>
<path fill-rule="evenodd" clip-rule="evenodd" d="M849.081 1122.39H990.112V1091.81H849.081V1122.39Z" fill="#A3744B"/>
<path fill-rule="evenodd" clip-rule="evenodd" d="M428.564 810.408L396.862 981.074H435.119L466.821 810.408H428.564Z" fill="#613B19"/>
<path fill-rule="evenodd" clip-rule="evenodd" d="M979.964 810.408L948.262 981.074H986.518L1018.22 810.408H979.964Z" fill="#613B19"/>
<path fill-rule="evenodd" clip-rule="evenodd" d="M832.833 1011.65H1002.46V981.075H832.833V1011.65Z" fill="#6A5038"/>
<path fill-rule="evenodd" clip-rule="evenodd" d="M1056.37 921.658L1050.7 952.244H1012.44L1018.12 921.658H1056.37Z" fill="#613B19"/>
<path fill-rule="evenodd" clip-rule="evenodd" d="M1018.12 921.658L1012.44 952.244H368.625L374.308 921.658H1018.12Z" fill="#A3744B"/>
<path fill-rule="evenodd" clip-rule="evenodd" d="M1066.7 866.035L1061.03 896.61H1022.77L1028.45 866.035H1066.7Z" fill="#613B19"/>
<path fill-rule="evenodd" clip-rule="evenodd" d="M1028.45 866.035L1022.77 896.61H378.955L384.637 866.035H1028.45Z" fill="#A3744B"/>
<path fill-rule="evenodd" clip-rule="evenodd" d="M1038.78 810.411L1033.11 840.987H1071.36L1077.03 810.411H1038.78Z" fill="#613B19"/>
<path fill-rule="evenodd" clip-rule="evenodd" d="M394.975 810.411L389.293 840.987H1033.11L1038.78 810.411H394.975Z" fill="#A3744B"/>
<path fill-rule="evenodd" clip-rule="evenodd" d="M849.081 1011.65L806.836 1209.33H834.783L877.027 1011.65H849.081Z" fill="#613B19"/>
<path fill-rule="evenodd" clip-rule="evenodd" d="M404.862 1011.65L447.107 1209.33H475.052L432.808 1011.65H404.862Z" fill="#613B19"/>
<path fill-rule="evenodd" clip-rule="evenodd" d="M295.682 1122.39H436.714V1091.81H295.682V1122.39Z" fill="#A3744B"/>
<path fill-rule="evenodd" clip-rule="evenodd" d="M295.682 1011.65L253.438 1209.33H281.385L323.628 1011.65H295.682Z" fill="#613B19"/>
<path fill-rule="evenodd" clip-rule="evenodd" d="M463.308 1209.88L463.024 1183.61L494.495 1166.54L499.063 1241.66H390.028C408.58 1219.16 463.308 1209.88 463.308 1209.88ZM637.914 1208.84L637.614 1177.59L671.6 1175.85L674.693 1207.11L682.596 1241.41H603.567C613.503 1212.27 637.914 1208.84 637.914 1208.84Z" fill="#411E0B"/>
<path fill-rule="evenodd" clip-rule="evenodd" d="M637.614 1177.59L670.942 1166.81L674.693 1207.11L637.914 1208.84L637.614 1177.59ZM463.024 1183.6L494.495 1173.43L497.032 1208.25L463.308 1209.88L463.024 1183.6Z" fill="#813929"/>
<path fill-rule="evenodd" clip-rule="evenodd" d="M674.015 907.219H766.229V931.895C766.229 962.559 741.268 987.415 710.475 987.415H683.125H669.822L679.523 1194.7H622.197L600.88 987.415H501.303L503.987 1194.7H445.681L418.144 982.084C413.212 942.326 444.057 907.219 483.916 907.219H641.082H674.015Z" fill="#19141E"/>
<path opacity="0.101632" fill-rule="evenodd" clip-rule="evenodd" d="M766.229 907.219H641.082C615.229 907.219 595.016 929.428 597.552 955.05L622.197 1194.7H679.523L669.822 987.415H710.475C741.268 987.415 766.229 962.559 766.229 931.895V907.219Z" fill="white"/>
<path fill-rule="evenodd" clip-rule="evenodd" d="M728.137 731.515C725.846 735.575 715.8 750.585 691.988 752.005C668.988 753.365 670.694 741.015 671.894 736.885C672.432 736.735 672.97 736.584 673.513 736.432C678.571 735.012 683.954 733.5 691.325 732.726C711.45 730.612 713.029 730.457 728.137 731.515ZM545.842 796.994C556.788 818.792 595.211 890.347 622.603 878.934C643.112 870.388 667.664 799.539 667.664 799.539L627.754 775.449L609.821 824.137L573.204 783.79C574.447 775.795 575.443 765.344 572.964 761.66C568.744 755.389 547.394 736.068 547.394 736.068L543.506 768.804L542.827 766.044C542.828 765.891 542.791 765.724 542.714 765.544C542.707 765.527 542.699 765.51 542.691 765.492L541.12 759.104C541.779 758.767 542.049 758.285 541.764 757.619C541.533 757.078 541.028 756.486 540.322 755.863L534.956 734.053C534.956 734.053 533.194 734.847 530.613 736.038C526.46 735.169 511.421 745.538 511.193 745.696L511.19 745.698C508.127 747.704 515.411 780.859 521.327 787.018C525.535 791.399 538.632 795.177 545.842 796.994ZM790.343 944.836L787.898 949.543C787.898 949.543 785.686 953.389 783.369 960.102C782.513 962.583 782.105 964.708 781.677 966.934C780.948 970.729 780.163 974.818 777.005 981.464C771.317 993.432 781.491 988.497 785.138 983.273C786.337 981.556 786.974 979.585 787.585 977.694C788.425 975.093 789.216 972.644 791.354 971.214C791.461 971.387 791.579 971.566 791.708 971.761C793.07 973.818 795.553 977.571 796.994 993.346C797.277 996.443 795.892 1006.49 795.892 1006.49C795.89 1006.71 795.886 1006.95 795.881 1007.21C795.826 1010.4 795.733 1015.85 798.86 1016.73C799.697 1016.97 800.787 1016.03 800.787 1016.03C800.787 1016.03 800.46 1019.96 803.912 1020.74C805.27 1021.05 807.967 1012.57 807.967 1012.57C807.967 1012.57 808.377 1016.88 810.956 1017.35C811.685 1017.49 820.291 992.918 820.291 992.918L819.774 998.468L818.631 1004.15C818.631 1004.15 818.723 1007.21 821.146 1007.75C822.108 1007.97 823.955 1002.86 825.686 996.861C828.377 987.519 828.323 980.499 827.53 973.518C827.338 971.824 827.202 970.357 827.077 969.009C826.579 963.641 826.257 960.171 823.298 951.903C822.855 950.665 822.261 949.245 821.597 947.784C823.628 929.999 829.352 877.94 828.651 861.958C827.801 842.573 807.551 799.54 807.551 799.54L766.439 822.851L789.099 864.727L790.343 944.836Z" fill="#813929"/>
<path fill-rule="evenodd" clip-rule="evenodd" d="M767.679 909.005H635.784L630.952 826.433L607.802 812.748L624.021 774.929L624.164 774.958C624.84 773.583 625.581 772.156 626.392 770.675C636.458 752.285 653.676 741.915 671.894 736.885C672.188 736.803 672.308 736.745 672.322 736.764C672.357 736.812 671.725 737.351 671.544 739.239C671.291 741.875 672.112 745.453 672.976 746.54C675.012 749.105 678.089 750.561 679.326 750.904C680.564 751.246 681.545 751.446 682.64 751.666C683.407 751.821 687.771 752.149 688.525 752.109C694.736 751.78 697.78 751.489 701.69 750.547C703.075 750.213 704.507 749.833 706.206 749.108C706.524 748.972 706.873 748.827 707.247 748.671C709.083 747.906 711.527 746.887 714.01 745.48C716.636 743.992 719.311 742.029 721.248 740.025C721.436 739.831 721.618 739.643 721.795 739.46C723.829 737.359 725.216 735.925 726.177 734.487C726.828 733.514 727.073 733.191 727.217 733.001C727.305 732.886 727.355 732.82 727.435 732.688C727.648 732.339 727.832 732.031 727.885 731.824C727.941 731.602 727.739 731.507 727.746 731.485C727.751 731.47 727.841 731.485 728.137 731.515C737.42 732.445 747.398 734.875 758.277 740.025C791.928 755.945 811.595 795.945 811.595 795.945L769.891 827.575L767.679 909.005Z" fill="#BF2B2B"/>
<path opacity="0.200521" d="M769.893 827.571L759.314 834.832L733.884 804.884" stroke="black" stroke-width="5"/>
<path d="M528.37 774.633L530.212 783.776H560.054L545.977 710.986H516.136C516.91 714.986 518.732 724.407 521.602 739.249L527.47 736.498L529.297 735.986L530.736 736.068L531.36 736.498V738.267L524.981 747.546L529.86 749.696L537.368 753.679L539.537 755.199L540.378 755.986L541.064 756.608L541.502 757.142L541.764 757.619L541.877 758.239L541.764 758.514L541.634 758.725L541.444 758.915L538.983 759.795L533.369 758.239H527.821L535.227 759.795L540.106 762.748L541.764 764.328L542.701 765.49V766.553L541.064 767.298L530.736 766.099L534.156 767.98L536.422 769.402L538.5 770.486L540.106 772.582V773.617L539.537 774.225L538.095 775.001H535.895H531.464L528.37 774.633Z" fill="#BF2B2B"/>
<path fill-rule="evenodd" clip-rule="evenodd" d="M560.057 783.776H564.995L550.919 710.986H545.982L560.057 783.776Z" fill="#020101"/>
<path fill-rule="evenodd" clip-rule="evenodd" d="M540.843 719.437C541.255 721.563 542.478 723.112 543.574 722.895C544.669 722.679 545.223 720.78 544.811 718.654C544.398 716.527 543.175 714.979 542.08 715.195C540.984 715.412 540.43 717.311 540.843 719.437" fill="#020101"/>
<path d="M678.403 737.253L679.252 707.891C679.252 707.891 643.641 710.732 636.023 706.767C636.023 706.767 627.811 663.519 638.042 631.051L713.191 622.244L718.538 665.541C721.069 658.059 740.827 649.487 746.289 660.2C758.123 683.413 715.807 699.043 715.807 699.043L720.104 737.606" fill="#813929"/>
<path opacity="0.399344" fill-rule="evenodd" clip-rule="evenodd" d="M679.252 707.891L703.265 702.732L679.367 718.907L679.252 707.891Z" fill="black"/>
<path fill-rule="evenodd" clip-rule="evenodd" d="M659.444 659.908L651.146 680.234L661.091 680.361L659.444 659.908Z" fill="#601212"/>
<path fill-rule="evenodd" clip-rule="evenodd" d="M668.905 665.684C668.411 668.422 670.226 671.042 672.957 671.536C675.689 672.032 678.304 670.214 678.798 667.477C679.293 664.74 677.478 662.12 674.747 661.625C672.014 661.13 669.399 662.947 668.905 665.684" fill="black"/>
<path fill-rule="evenodd" clip-rule="evenodd" d="M642.807 665.684C642.312 668.422 644.127 671.042 646.858 671.536C649.591 672.032 652.205 670.214 652.7 667.477C653.194 664.74 651.379 662.12 648.648 661.625C645.916 661.13 643.301 662.947 642.807 665.684" fill="black"/>
<path fill-rule="evenodd" clip-rule="evenodd" d="M669.762 686.116C669.762 686.116 666.287 691.764 659.402 691.285Z" fill="white"/>
<path d="M669.762 686.116C669.762 686.116 666.287 691.764 659.402 691.285" stroke="black" stroke-width="4"/>
<path d="M732.741 656.287C736.078 643.853 748.154 597.959 746.731 590.124C745.085 581.044 738.776 569.897 706.36 558.206C678.895 548.301 663.402 555.473 658.709 561.577C651.568 570.863 638.043 631.052 638.043 631.052C638.043 631.052 649.234 639.031 688.92 637.655C688.92 637.655 683.426 661.593 705.947 660.217C705.947 660.217 703.534 668.279 714.432 670.814C720.412 661.497 728.348 657.732 732.741 656.287V656.287Z" fill="#19141E"/>
</svg>
