<svg width="1651" height="1031" viewBox="0 0 1651 1031" fill="none" xmlns="http://www.w3.org/2000/svg">
<ellipse cx="908.532" cy="698.972" rx="741.885" ry="116.461" fill="#9A59EC"/>
<path fill-rule="evenodd" clip-rule="evenodd" d="M1073.92 610.268L1111.66 698.971H1128.78L1106.07 605.92L1073.92 610.268Z" fill="#2A468F"/>
<path fill-rule="evenodd" clip-rule="evenodd" d="M881.102 610.268L918.845 698.971H935.961L913.254 605.92L881.102 610.268Z" fill="#2A468F"/>
<path fill-rule="evenodd" clip-rule="evenodd" d="M593.102 698.972H610.218L647.961 610.269L615.809 605.921L593.102 698.972Z" fill="#2A468F"/>
<path fill-rule="evenodd" clip-rule="evenodd" d="M785.916 698.972H803.032L840.776 610.269L808.623 605.921L785.916 698.972Z" fill="#2A468F"/>
<path fill-rule="evenodd" clip-rule="evenodd" d="M614.149 402.679V617.459L837.362 617.936L874.069 405.475L614.149 402.679ZM631.149 419.863L853.918 422.259L823.052 600.906L631.149 600.496V419.863Z" fill="#2A468F"/>
<path fill-rule="evenodd" clip-rule="evenodd" d="M907.06 270.658L847.061 617.936H1108.81L1168.81 270.658H907.06Z" fill="#4566BC"/>
<path fill-rule="evenodd" clip-rule="evenodd" d="M836.675 270.658L776.675 617.936H1035.25L1095.25 270.658H836.675Z" fill="#68A0D3"/>
<path fill-rule="evenodd" clip-rule="evenodd" d="M772.563 617.936H1080.36C1096.07 617.936 1108.81 605.197 1108.81 589.482V523.906C1108.81 508.191 1096.07 495.452 1080.36 495.452H772.563C756.848 495.452 744.109 508.191 744.109 523.906V589.482C744.109 605.197 756.848 617.936 772.563 617.936Z" fill="#4566BC"/>
<path fill-rule="evenodd" clip-rule="evenodd" d="M612.993 617.936H885.597V495.452H612.993V617.936Z" fill="#68A0D3"/>
<path d="M955.871 152.062C994.021 157.322 978.038 200.751 967.315 224.199C954.729 251.723 965.754 270.177 965.754 270.177L1024.73 249.483C1003.08 222.278 1026.98 207.127 1021.1 174.69C1015.82 145.593 987.171 132.465 969.069 133.084C960.032 133.393 952.637 135.693 946.783 138.642C946.561 138.754 946.348 138.874 946.146 139.001C935.452 128.147 920.648 121.659 903.54 121.659C868.356 121.659 836.744 149.096 836.744 185.527C836.744 221.958 865.266 251.491 900.451 251.491C935.635 251.491 964.158 221.958 964.158 185.527C964.158 173.076 961.187 161.675 955.871 152.062Z" fill="#19141E"/>
<path fill-rule="evenodd" clip-rule="evenodd" d="M894.227 253.233C894.227 253.233 907.31 253.615 912.886 250.605L894.922 261.752L894.227 253.233Z" fill="#CF3E83"/>
<path d="M845.455 204.497C847.416 219.5 852.505 240.641 865.07 248.9C871.738 253.28 883.879 253.82 894.229 253.23L896.597 282.28L930.37 268.54C930.37 268.54 927.122 236.48 925.715 224.19C932.504 218.11 944.069 215.29 944.089 204.96C944.089 201.38 941.975 195.19 934.164 195.17C923.682 195.16 925.179 207.58 925.179 207.58C923.88 208.078 922.578 208.049 921.28 207.591C910.901 207.165 882.033 202.869 862.405 169.72C860.114 180.879 855.353 194.787 845.455 204.497Z" fill="#FF9F9F"/>
<path fill-rule="evenodd" clip-rule="evenodd" d="M865.787 207.552L858.3 225.492L866.986 225.32L865.787 207.552Z" fill="#C06262"/>
<path fill-rule="evenodd" clip-rule="evenodd" d="M873.758 208.33C873.945 211.914 876.077 214.706 878.522 214.567C880.965 214.428 882.796 211.41 882.609 207.826C882.422 204.242 880.29 201.45 877.846 201.589C875.401 201.728 873.571 204.747 873.758 208.33Z" fill="#0D0B6D"/>
<path fill-rule="evenodd" clip-rule="evenodd" d="M850.804 207.758C850.991 211.342 853.123 214.134 855.567 213.995C858.012 213.856 859.842 210.838 859.656 207.254C859.469 203.67 857.337 200.877 854.893 201.016C852.448 201.155 850.618 204.174 850.804 207.758Z" fill="#0D0B6D"/>
<path d="M869.116 233.913C869.116 233.913 874.776 235.719 880.448 229.486" stroke="#1C295E" stroke-width="3"/>
<path opacity="0.402786" fill-rule="evenodd" clip-rule="evenodd" d="M894.249 253.233C894.249 253.233 907.331 253.615 912.907 250.604L894.944 261.751L894.249 253.233Z" fill="black"/>
<path fill-rule="evenodd" clip-rule="evenodd" d="M946.818 416.35L953.809 416.249C953.809 416.249 953.799 416.14 953.79 415.91C951.382 416.079 949.054 416.219 946.818 416.35Z" fill="#B02E18"/>
<path d="M804.362 491.229L827.441 494.088L864.612 436.628L865.969 417.529L922.596 416.699L946.768 416.349H946.818C949.054 416.218 951.382 416.079 953.789 415.909C984.233 413.809 1026.41 407.958 1029.31 391.758C1034.56 362.418 994.836 305.479 990.142 298.879C989.848 298.469 989.698 298.249 989.698 298.249C983.04 288.849 976.341 281.539 970.089 277.649C957.927 270.079 946.525 268.418 935.689 268.449L932.786 247.659L888.581 253.688L890.989 270.969C878.008 272.199 869.176 274.708 860.91 282.208C834.371 306.289 832.418 396.479 832.418 396.479L804.362 491.229Z" fill="#CE3D29"/>
<path fill-rule="evenodd" clip-rule="evenodd" d="M922.597 416.699V417.099C922.597 417.099 932.735 417.119 946.768 416.349L922.597 416.699Z" fill="#B02E18"/>
<path opacity="0.201149" d="M866.782 417.298C863.536 376.555 841.07 367.94 857.258 322.247" stroke="black" stroke-width="3"/>
<path fill-rule="evenodd" clip-rule="evenodd" d="M828.561 467.702L912.981 458.085C915.746 457.769 917.566 455.083 916.808 452.437L883.452 335.959C882.849 333.854 880.791 332.492 878.592 332.742L794.172 342.359C791.408 342.674 789.587 345.361 790.346 348.007L823.7 464.484C824.303 466.59 826.362 467.952 828.561 467.702Z" fill="#18181C"/>
<path d="M903.525 424.174C903.365 424.216 903.202 424.26 903.038 424.306C897.173 425.888 891.178 426.845 882.84 425.759C877.477 425.066 872.866 424.16 872.918 423.314C873.065 421.177 875.669 420.698 875.669 420.698L880.677 420.937L885.495 420.655C885.495 420.655 863.359 416.517 863.359 415.876C863.428 413.619 867.061 412.704 867.061 412.704C867.061 412.704 859.45 411.507 859.537 410.31C859.744 407.267 863.143 407.036 863.143 407.036C863.143 407.036 862.2 406.232 862.295 405.488C862.667 402.487 868.082 401.991 870.66 401.624C870.66 401.624 879.431 401.505 882.044 400.863C888.914 399.167 893.003 397.653 895.568 396.388L878.427 336.531C877.824 334.426 875.765 333.064 873.566 333.314L789.147 342.932C786.383 343.246 784.562 345.933 785.32 348.579L818.675 465.056C819.278 467.162 821.336 468.524 823.536 468.274L907.955 458.657C910.719 458.341 912.541 455.655 911.783 453.009L903.525 424.174Z" fill="#E64EFF"/>
<path fill-rule="evenodd" clip-rule="evenodd" d="M863.359 415.876C863.428 413.619 867.061 412.704 867.061 412.704C867.061 412.704 859.45 411.507 859.537 410.31C859.744 407.267 863.143 407.036 863.143 407.036C863.143 407.036 862.2 406.232 862.295 405.488C862.64 402.709 867.31 402.078 870.046 401.708C870.264 401.679 870.47 401.651 870.66 401.624C870.66 401.624 879.431 401.505 882.044 400.863C895.071 397.648 898.098 395.084 899.698 393.639C899.747 393.595 899.794 393.552 899.84 393.51C899.973 393.39 900.095 393.279 900.218 393.178C900.128 393.082 900.026 392.921 899.919 392.753C899.769 392.516 899.61 392.266 899.463 392.161L897.237 384.098C898.867 384.272 900.46 384.327 902.039 384.381C904.255 384.456 906.441 384.531 908.659 384.935C914.706 386.038 918.287 387.424 918.287 387.424L926.003 390.031L931.599 410.498C929.48 412.362 924.403 416.038 920.959 417.893C914.31 421.473 911.382 422.201 906.887 423.318C906.132 423.506 905.333 423.705 904.464 423.93C904.366 423.956 904.266 423.981 904.166 424.007C903.801 424.101 903.425 424.198 903.038 424.306C897.173 425.888 891.178 426.845 882.84 425.759C877.477 425.066 872.866 424.16 872.918 423.314C873.065 421.177 875.669 420.698 875.669 420.698L880.677 420.937L885.495 420.655C885.495 420.655 863.359 416.517 863.359 415.876ZM792.055 506.949C792.996 505.122 799.457 497.451 804.763 491.279L826.853 494.016C829.382 508.761 818.873 529.835 818.873 529.835C818.873 529.835 824.339 526.539 825.427 529.421C825.912 530.705 827.008 540.952 806.53 541.642C804.356 541.716 799.126 537.345 799.126 537.345C799.126 537.345 802.94 544.542 797.101 545.956C797.101 545.956 787.689 532.019 787.546 528.919C787.402 525.817 790.422 510.12 792.055 506.949Z" fill="#FF9F9F"/>
<path opacity="0.148065" d="M814.692 501.71C814.692 501.71 811.818 512.439 801.957 515.782C798.507 516.951 799.368 530.751 790.917 529.101" stroke="black" stroke-width="3"/>
<path fill-rule="evenodd" clip-rule="evenodd" d="M869.85 344.165C870.514 346.229 871.933 347.626 873.019 347.285C874.104 346.944 874.445 344.993 873.78 342.929C873.116 340.864 871.697 339.467 870.612 339.808C869.526 340.15 869.185 342.1 869.85 344.165Z" fill="#020101"/>
<path opacity="0.200498" d="M954.884 330.326L976.192 365.198L923.213 385.917" stroke="black" stroke-width="3"/>
<path fill-rule="evenodd" clip-rule="evenodd" d="M640.21 603.692L650.642 583.4L675.747 587.138L641.599 642.464L566.698 593.332C592.478 587.648 640.21 603.692 640.21 603.692ZM757.503 710.641L754.891 688.113L777.833 677.586L781.224 742.108L690.652 741.953C708.918 723.23 757.503 710.641 757.503 710.641Z" fill="#0D0B6D"/>
<path fill-rule="evenodd" clip-rule="evenodd" d="M648 586.277L673.444 591.529L658.793 614.759L637.697 602.049L648 586.277ZM754.866 692.709L778.931 683.256L779.67 710.518L755.071 711.411L754.866 692.709Z" fill="#FF9F9F"/>
<path d="M718.498 564.759L730.953 698.382H788.643L786.082 504.368L896.198 505.118C927.611 505.118 957.994 478.454 955.816 447.465L952.391 415.915L784.23 366.813C753.099 359.856 742.305 369.047 722.122 404.557L633.01 585.096L681.963 617.429L718.498 564.759Z" fill="#2F2F3D"/>
<path opacity="0.150484" fill-rule="evenodd" clip-rule="evenodd" d="M770.18 427.403L896.198 505.118L786.082 504.368L788.643 698.382H730.953L711.175 486.198C706.296 447.591 730.742 427.403 770.18 427.403Z" fill="#18181C"/>
<path fill-rule="evenodd" clip-rule="evenodd" d="M885.598 402.679V617.459L1108.81 617.936L1145.52 405.475L885.598 402.679ZM902.598 419.863L1125.37 422.259L1094.5 600.906L902.598 600.496V419.863Z" fill="#2A468F"/>
</svg>
