<svg width="1485" height="1072" viewBox="0 0 1485 1072" fill="none" xmlns="http://www.w3.org/2000/svg">
<ellipse cx="742.5" cy="954.561" rx="741.885" ry="116.461" fill="#913FFA"/>
<path fill-rule="evenodd" clip-rule="evenodd" d="M805.749 158.576C805.749 172.912 796.531 184.533 785.16 184.533C773.791 184.533 764.573 172.912 764.573 158.576C764.573 144.24 773.791 132.618 785.16 132.618C796.531 132.618 805.749 144.24 805.749 158.576" fill="#19141E"/>
<path d="M757.029 261.406L756.167 231.592C756.167 231.592 792.314 234.477 800.047 230.451C800.047 230.451 809.498 181.649 798.226 154.624L797.998 153.572L721.717 144.629L717.44 188.5C714.87 180.904 693.664 172.291 688.121 183.168C676.107 206.738 719.061 222.609 719.061 222.609L714.699 261.763" fill="#FF9F9F"/>
<path opacity="0.398926" fill-rule="evenodd" clip-rule="evenodd" d="M756.167 231.592L731.792 226.354L756.05 242.777L756.167 231.592Z" fill="black"/>
<path fill-rule="evenodd" clip-rule="evenodd" d="M775.652 187.943L784.074 208.581L773.98 208.71L775.652 187.943Z" fill="#CA5454"/>
<path fill-rule="evenodd" clip-rule="evenodd" d="M766.67 188.737C767.172 191.516 765.33 194.177 762.557 194.679C759.784 195.182 757.129 193.336 756.628 190.557C756.126 187.778 757.967 185.118 760.741 184.615C763.514 184.113 766.168 185.958 766.67 188.737" fill="#0D0B6D"/>
<path fill-rule="evenodd" clip-rule="evenodd" d="M794.974 188.737C795.476 191.516 793.634 194.177 790.861 194.679C788.088 195.182 785.433 193.336 784.932 190.557C784.43 187.778 786.271 185.118 789.045 184.615C791.818 184.113 794.472 185.958 794.974 188.737" fill="#0D0B6D"/>
<path d="M723.104 195.988C715.872 183.582 705.408 179.798 700.711 178.689C698.837 173.262 697.409 166.968 696.406 160.275C693.715 142.361 706.711 126.016 717.208 121.323C727.834 116.573 746.156 109.991 772.975 118.926C791.005 124.937 802.53 110.546 813.14 116.692C831.27 127.197 814.407 173.19 768.435 161.506C735.551 153.148 734.706 155.245 734.424 161.32C733.512 180.957 730.457 192.51 723.104 195.988V195.988Z" fill="#2F2F3D"/>
<path fill-rule="evenodd" clip-rule="evenodd" d="M761.629 209.477C761.629 209.477 764.87 215.379 771.875 215.239Z" fill="white"/>
<path d="M761.629 209.477C761.629 209.477 764.87 215.379 771.875 215.239" stroke="#252535" stroke-width="4"/>
<path fill-rule="evenodd" clip-rule="evenodd" d="M773.206 188.984C773.206 195.445 767.979 200.682 761.532 200.682C755.085 200.682 749.858 195.445 749.858 188.984C749.858 182.523 755.085 177.285 761.532 177.285C767.979 177.285 773.206 182.523 773.206 188.984Z" stroke="#252535" stroke-width="4"/>
<path fill-rule="evenodd" clip-rule="evenodd" d="M802.6 188.984C802.6 195.445 797.373 200.682 790.927 200.682C784.479 200.682 779.252 195.445 779.252 188.984C779.252 182.523 784.479 177.285 790.927 177.285C797.373 177.285 802.6 182.523 802.6 188.984Z" stroke="#252535" stroke-width="4"/>
<path d="M778.301 189.526H773.254" stroke="#252535" stroke-width="4"/>
<path d="M749.858 188.984H721.021" stroke="#252535" stroke-width="4"/>
<path fill-rule="evenodd" clip-rule="evenodd" d="M787.048 931.467L787.331 907.016L755.828 891.137L751.256 961.034H860.402C841.831 940.101 787.048 931.467 787.048 931.467ZM647.237 932.42L647.521 904.957L626.982 921.692L610.455 930.901L605.001 961.034H679.703C670.311 935.434 647.237 932.42 647.237 932.42Z" fill="#0D0B6D"/>
<path fill-rule="evenodd" clip-rule="evenodd" d="M647.521 904.957L616.018 895.483L610.454 930.9L647.237 932.419L647.521 904.957ZM787.331 907.017L755.828 897.543L753.288 929.948L787.048 931.466L787.331 907.017Z" fill="#FF9F9F"/>
<path d="M791.846 899L791.119 921.692H749.565L750.293 898.932C745.638 897.063 742.312 892.568 742.198 887.258L735.51 547.367L663.235 890.516C662.217 895.343 658.639 899.092 654.095 900.474L651.378 921.692H607.808L611.558 898.265C607.93 895.451 605.827 890.823 606.55 885.878L673.09 431.077L733.221 431.077L733.218 430.903H806.047L801.682 886.623C801.622 892.615 797.455 897.628 791.846 899V899Z" fill="#2F2F3D"/>
<path opacity="0.197824" fill-rule="evenodd" clip-rule="evenodd" d="M735.14 552.753L747.892 496.182L738.298 667.689L735.14 552.753Z" fill="black"/>
<path d="M688.647 431.506L695.627 432.645L619.516 896.119L612.516 894.95L688.647 431.506Z" fill="#EFEFEF"/>
<path fill-rule="evenodd" clip-rule="evenodd" d="M906.083 275.182L905.583 266.553C905.583 266.553 905.593 260.548 906.373 254.066C906.568 252.44 906.998 250.739 907.457 248.923C908.828 243.501 910.458 237.049 906.893 228.477C902.133 217.045 913.513 224.938 916.033 230.376C917.006 232.478 917.29 235.655 917.571 238.806C917.896 242.451 918.219 246.061 919.603 247.932C921.783 246.749 923.233 245.208 923.233 245.208L947.763 213.575C948.553 212.511 950.013 212.193 951.183 212.82L952.503 213.535C953.893 214.291 954.333 216.06 953.443 217.353C951.741 219.836 948.771 224.024 945.666 228.402L945.665 228.402L945.663 228.405C940.03 236.348 933.955 244.915 934.213 245.049L934.863 245.835L963.673 215.633C964.573 214.629 966.083 214.45 967.193 215.215L968.923 216.408C970.183 217.273 970.453 219.003 969.513 220.196C966.441 224.14 958.836 232.682 952.504 239.793L952.504 239.793C947.027 245.946 942.502 251.027 942.693 251.133L943.553 251.959L970.373 228.408C971.323 227.354 972.943 227.234 974.043 228.119L975.353 229.183C976.503 230.108 976.673 231.788 975.733 232.921L950.403 256.601L951.133 257.744L973.123 242.385C974.133 241.49 975.653 241.49 976.673 242.375L977.283 242.922C978.363 243.876 978.483 245.517 977.543 246.62C976.046 248.381 973.083 250.694 969.551 253.452C965.487 256.626 960.668 260.388 956.463 264.574C954.146 266.881 952.278 269.141 950.386 271.432C947.295 275.173 944.137 278.994 938.853 283.224C935.699 285.759 932.844 287.233 930.127 288.635C929.743 288.834 929.362 289.03 928.983 289.229L906.083 275.182ZM708.373 255.383C708.373 255.383 725.32 255.351 737.551 255.31C749.781 255.268 765.161 260.409 765.161 260.409C765.161 260.409 773.164 278.379 745.364 276.751C717.564 275.122 708.373 255.383 708.373 255.383ZM615.68 328.102C615.68 328.102 588.551 368.804 589.166 391.439C589.892 418.128 675.237 483.705 675.237 483.705L697.355 465.697L643.627 390.828L663.166 349.227L615.68 328.102Z" fill="#FF9F9F"/>
<path d="M690.928 433.062L704.14 450.781L664.345 485.449C664.345 485.449 591.318 431.955 589.063 390.012C587.627 363.298 611.012 325.164 611.012 325.164C611.012 325.164 640.364 278.279 674.294 262.457C681.257 259.209 698.139 256.501 708.373 255.383C711.51 255.041 709.634 256.262 710.711 258.33C711.837 260.49 715.261 263.69 717.63 266.083C722.562 271.062 732.28 274.832 737.5 275.604C741.478 276.192 749.166 277.104 752.865 276.608C756.563 276.111 760.584 274.443 761.659 273.451C762.733 272.46 764.332 271.22 765.161 269.309C765.99 267.399 765.948 267.946 765.948 266.183C765.948 264.421 765.857 264.681 765.685 263.843C765.512 263.004 765.512 262.5 765.41 262.066C764.96 260.148 765.161 260.409 765.161 260.409C785.191 266.455 795.336 268.692 802.633 277.488L858.397 316.599L896.551 266.841L945.781 299.877C945.781 299.877 902.192 381.039 870.602 390.012C845.155 397.24 819.376 374.761 810.312 365.745L821.081 420.382C822.807 429.815 814.542 433.385 807.178 433.051L690.928 433.062Z" fill="#72A065"/>
<path opacity="0.201242" fill-rule="evenodd" clip-rule="evenodd" d="M810.143 365.778L803.478 339.454L821.474 375.429L810.143 365.778Z" fill="black"/>
<path opacity="0.200591" d="M685.986 426.718L654.909 382.67L692.448 325.775" stroke="black" stroke-width="5"/>
</svg>
