<svg width="1485" height="1054" viewBox="0 0 1485 1054" fill="none" xmlns="http://www.w3.org/2000/svg">
<ellipse cx="742.705" cy="936.683" rx="741.885" ry="116.461" fill="#8A6198"/>
<path d="M893.082 261.368L892.228 232.066C892.228 232.066 928.026 234.901 935.684 230.944C935.684 230.944 945.043 182.98 933.88 156.418L933.654 155.384L858.112 146.594L854.68 190.84C852.135 183.375 830.331 173.781 824.841 184.472C812.945 207.638 855.482 223.236 855.482 223.236L851.163 261.72" fill="#FF9F9F"/>
<path opacity="0.403344" fill-rule="evenodd" clip-rule="evenodd" d="M892.229 232.065L868.09 226.917L892.113 243.059L892.229 232.065Z" fill="black"/>
<path fill-rule="evenodd" clip-rule="evenodd" d="M912.14 184.181L920.481 204.466L910.485 204.592L912.14 184.181Z" fill="#CA5454"/>
<path fill-rule="evenodd" clip-rule="evenodd" d="M902.629 189.945C903.127 192.677 901.302 195.292 898.557 195.785C895.81 196.28 893.181 194.466 892.685 191.735C892.188 189.003 894.012 186.389 896.758 185.895C899.504 185.4 902.133 187.214 902.629 189.945Z" fill="black"/>
<path fill-rule="evenodd" clip-rule="evenodd" d="M928.865 189.945C929.362 192.677 927.538 195.292 924.792 195.785C922.046 196.28 919.417 194.466 918.92 191.735C918.423 189.003 920.247 186.389 922.993 185.895C925.74 185.4 928.369 187.214 928.865 189.945Z" fill="black"/>
<path d="M861.856 201.747C861.716 201.407 861.562 201.055 861.39 200.69C855.623 188.416 846.678 183.258 840.802 181.118C837.591 176.393 835.06 171.11 834.219 165.545C831.554 147.938 836.214 131.845 846.609 127.233C857.132 122.564 882.058 124.905 910.047 124.905C943.652 124.905 945.503 121.61 945.503 121.61C945.503 121.61 975.126 163.182 920.434 161.974C891.774 161.34 875.465 162.055 875.465 162.055L861.856 201.747Z" fill="#19141E"/>
<path fill-rule="evenodd" clip-rule="evenodd" d="M905.694 217.515C905.694 217.515 910.841 221.715 917.229 219.023L905.694 217.515Z" fill="white"/>
<path d="M905.694 217.515C905.694 217.515 910.841 221.715 917.229 219.023" stroke="#252535" stroke-width="4"/>
<path fill-rule="evenodd" clip-rule="evenodd" d="M897.005 213.133C897.005 213.133 899.789 205.896 912.971 206.439C926.154 206.98 927.789 215.947 927.789 215.947L897.005 213.133Z" fill="#19141E"/>
<path fill-rule="evenodd" clip-rule="evenodd" d="M683.708 829.187L715.499 802.664L706.245 773.903L638.742 819.283L687.228 913.971C687.228 913.971 690.006 891.134 688.44 865.619C687.358 847.993 683.708 829.187 683.708 829.187ZM1006.47 911.321L999.504 888.862L970.003 890.42L994.556 952.103L1088.87 897.466C1060.88 888.994 1006.47 911.321 1006.47 911.321Z" fill="black"/>
<path fill-rule="evenodd" clip-rule="evenodd" d="M707.481 809.427L705.8 773.856L666.922 800.51L683.707 829.186L707.481 809.427ZM997.724 882.679L969.56 890.296L982.331 921.389L1006.47 911.32L997.724 882.679Z" fill="#FF9F9F"/>
<path d="M827.948 539.985C820.173 514.362 814.681 495.281 812.876 486.948C804.851 449.9 804.868 432.194 804.868 430.848H832.69L937.502 430.847C936.932 440.757 938.583 467.037 934.85 503.425L1016.23 866.462L1024.45 865.03L1031.59 893.248L942.574 911.014L931.729 881.198L937.047 880.271C925.166 844.508 899.218 765.119 874.042 686.583C870.901 691.815 867.604 697.065 864.143 702.327C817.231 773.668 770.407 814.944 744.757 834.336L748.548 839.758L722.817 856.128L666.23 775.62L691.196 757.731L695.406 763.752C725.857 735.742 786.687 669.878 822.549 564.062C824.953 556.974 826.687 548.813 827.948 539.985Z" fill="#19141E"/>
<path fill-rule="evenodd" clip-rule="evenodd" d="M937.047 880.271C911.564 803.567 821.373 526.172 812.876 486.948C804.868 449.976 804.868 432.267 804.868 430.856C804.868 430.853 804.868 430.85 804.868 430.848H918.58L1016.23 866.462L1024.45 865.03L1031.59 893.247L942.574 911.014L931.729 881.198L937.047 880.271Z" fill="white" fill-opacity="0.1"/>
<path fill-rule="evenodd" clip-rule="evenodd" d="M844.15 254.889C846.46 258.925 856.59 273.847 880.6 275.259C903.79 276.611 902.07 264.333 900.86 260.227C900.318 260.079 899.775 259.929 899.227 259.777C894.128 258.366 888.7 256.863 881.268 256.093C860.976 253.991 859.384 253.837 844.15 254.889ZM1027.96 319.984C1016.92 341.654 978.18 412.79 950.56 401.444C929.881 392.948 905.125 322.515 905.125 322.515L945.366 298.566L963.448 346.968L1000.37 306.858C999.116 298.91 998.112 288.52 1000.61 284.857C1004.87 278.623 1026.39 259.416 1026.39 259.416L1030.31 291.96L1031 289.216C1031 289.063 1031.03 288.898 1031.11 288.719C1031.12 288.702 1031.13 288.685 1031.14 288.667L1032.72 282.317C1032.05 281.981 1031.78 281.503 1032.07 280.84C1032.3 280.303 1032.81 279.713 1033.52 279.094L1038.94 257.412C1038.94 257.412 1040.71 258.202 1043.31 259.385C1047.5 258.522 1062.67 268.83 1062.9 268.987L1062.9 268.989C1065.99 270.983 1058.64 303.944 1052.68 310.066C1048.43 314.422 1035.23 318.178 1027.96 319.984ZM781.427 466.959L783.892 471.638C783.892 471.638 786.123 475.462 788.459 482.135C789.323 484.602 789.734 486.714 790.165 488.927C790.9 492.701 791.692 496.765 794.876 503.372C800.611 515.27 790.353 510.364 786.675 505.17C785.467 503.464 784.825 501.504 784.209 499.624C783.361 497.039 782.563 494.604 780.408 493.182C780.301 493.354 780.181 493.533 780.051 493.726C778.678 495.771 776.174 499.502 774.721 515.184C774.436 518.263 775.832 528.25 775.832 528.25C775.835 528.473 775.839 528.714 775.843 528.969C775.899 532.142 775.993 537.554 772.839 538.435C771.995 538.672 770.896 537.738 770.896 537.738C770.896 537.738 771.226 541.643 767.745 542.421C766.376 542.726 763.657 534.294 763.657 534.294C763.657 534.294 763.243 538.576 760.643 539.052C759.908 539.187 751.23 514.759 751.23 514.759L751.752 520.276L752.904 525.927C752.904 525.927 752.811 528.969 750.368 529.507C749.398 529.72 747.536 524.647 745.791 518.679C743.077 509.391 743.132 502.413 743.931 495.473C744.125 493.789 744.262 492.33 744.388 490.99C744.891 485.654 745.216 482.204 748.199 473.984C748.646 472.754 749.245 471.342 749.914 469.89C747.866 452.209 742.094 400.455 742.802 384.567C743.659 365.296 764.077 322.515 764.077 322.515L805.53 345.689L782.682 387.32L781.427 466.959Z" fill="#FF9F9F"/>
<path fill-rule="evenodd" clip-rule="evenodd" d="M804.279 431.338H937.269L942.142 349.251L965.484 335.646L949.13 298.049L948.986 298.077C948.305 296.711 947.557 295.292 946.739 293.82C936.59 275.537 919.23 265.228 900.86 260.227C900.563 260.146 900.442 260.088 900.429 260.108C900.393 260.156 901.03 260.692 901.213 262.568C901.467 265.188 900.64 268.745 899.769 269.827C897.716 272.376 894.614 273.824 893.366 274.164C892.118 274.505 891.129 274.703 890.025 274.922C889.251 275.076 884.851 275.402 884.091 275.362C877.829 275.036 874.759 274.746 870.816 273.809C869.42 273.478 867.976 273.1 866.263 272.379C865.942 272.244 865.59 272.1 865.213 271.945C863.363 271.184 860.897 270.171 858.394 268.772C855.747 267.293 853.049 265.342 851.096 263.349C850.907 263.157 850.723 262.97 850.545 262.788C848.494 260.699 847.095 259.273 846.126 257.844C845.47 256.877 845.223 256.555 845.077 256.367C844.989 256.252 844.939 256.187 844.858 256.056C844.643 255.708 844.457 255.402 844.405 255.197C844.348 254.975 844.551 254.881 844.544 254.859C844.539 254.845 844.448 254.86 844.15 254.889C834.79 255.814 824.729 258.229 813.759 263.349C779.829 279.176 759.999 318.941 759.999 318.941L802.049 350.386L804.279 431.338Z" fill="#5E93D1"/>
<path opacity="0.200521" d="M802.047 350.381L812.714 357.6L838.355 327.828" stroke="black" stroke-width="5"/>
<path d="M1045.58 297.754L1043.72 306.843H1013.63L1027.82 234.48H1057.91C1057.13 238.457 1055.29 247.823 1052.4 262.578L1046.48 259.843L1044.64 259.334L1043.19 259.415L1042.56 259.843V261.602L1048.99 270.826L1044.07 272.964L1036.5 276.924L1034.32 278.434L1033.47 279.217L1032.78 279.835L1032.33 280.366L1032.07 280.84L1031.96 281.457L1032.07 281.73L1032.2 281.939L1032.39 282.129L1034.87 283.003L1040.53 281.457H1046.13L1038.66 283.003L1033.74 285.939L1032.07 287.51L1031.13 288.665V289.722L1032.78 290.462L1043.19 289.27L1039.74 291.141L1037.46 292.554L1035.36 293.632L1033.74 295.716V296.745L1034.32 297.349L1035.77 298.12H1037.99H1042.46L1045.58 297.754Z" fill="#5E93D1"/>
<path fill-rule="evenodd" clip-rule="evenodd" d="M1013.62 306.843H1008.65L1022.84 234.48H1027.82L1013.62 306.843Z" fill="#020101"/>
<path fill-rule="evenodd" clip-rule="evenodd" d="M1033 242.882C1032.58 244.996 1031.35 246.536 1030.24 246.32C1029.14 246.105 1028.58 244.218 1029 242.104C1029.41 239.989 1030.65 238.451 1031.75 238.665C1032.86 238.881 1033.41 240.769 1033 242.882Z" fill="#020101"/>
<path d="M510.291 262.04C510.291 249.871 556.43 148.654 616.341 150.452C699.454 152.947 720.77 280.301 716.965 292.837C713.936 302.82 699.337 306.451 635.329 304.682C539.192 302.024 510.291 272.938 510.291 262.04Z" fill="#BB8B11"/>
<path fill-rule="evenodd" clip-rule="evenodd" d="M622.204 284.61C622.204 284.61 609.552 284.979 604.16 282.068L621.532 292.849L622.204 284.61Z" fill="#CF3E83"/>
<path d="M619.924 201.777C634.507 209.056 657.473 222.406 669.152 239.06C667.108 253.439 662.113 272.721 650.399 280.42C643.951 284.657 632.21 285.179 622.201 284.608L619.912 312.696L588.23 302.318C588.23 302.318 591.371 269.404 592.731 257.498C586.166 251.608 574.004 247.913 573.983 237.912C573.983 234.459 576.028 228.463 583.583 228.453C593.718 228.443 592.281 240.446 592.281 240.446C602.526 244.39 612.99 214.352 619.924 201.777L619.924 201.777Z" fill="#813829"/>
<path fill-rule="evenodd" clip-rule="evenodd" d="M649.707 240.428L656.947 257.779L648.547 257.613L649.707 240.428Z" fill="#601111"/>
<path fill-rule="evenodd" clip-rule="evenodd" d="M641.998 241.18C641.817 244.646 639.755 247.347 637.391 247.212C635.028 247.078 633.258 244.159 633.439 240.692C633.619 237.226 635.681 234.526 638.045 234.66C640.409 234.795 642.179 237.714 641.998 241.18Z" fill="black"/>
<path fill-rule="evenodd" clip-rule="evenodd" d="M664.196 240.626C664.015 244.093 661.953 246.793 659.59 246.659C657.226 246.524 655.455 243.605 655.636 240.139C655.817 236.673 657.878 233.971 660.242 234.106C662.606 234.24 664.376 237.16 664.196 240.626Z" fill="black"/>
<path d="M646.486 265.924C646.486 265.924 641.013 267.67 635.528 261.642" stroke="black" stroke-width="3"/>
<path opacity="0.398182" fill-rule="evenodd" clip-rule="evenodd" d="M622.183 284.609C622.183 284.609 609.531 284.979 604.139 282.068L621.511 292.849L622.183 284.609Z" fill="black"/>
<path fill-rule="evenodd" clip-rule="evenodd" d="M447.754 898.84C447.671 883.763 445.494 870.742 445.494 870.742L461.348 822.683L413.426 865.73L444.796 942.03C444.796 942.03 447.877 920.665 447.754 898.84ZM784.329 923.44C761.374 914.263 717.283 930.708 717.283 930.708L698.414 937.703L706.794 967.059L784.329 923.44Z" fill="#0F0E38"/>
<path d="M630.934 543.999L632.451 550.815L699.812 852.484L717.283 930.707L698.418 937.701C698.418 937.701 686.571 906.658 669.584 861.579C648.831 806.533 620.424 730.551 596.561 664.62C595.176 660.784 593.81 656.997 592.454 653.238C590.443 657.766 588.356 662.332 586.194 666.916C576.671 687.178 565.726 707.917 553.158 728.731C531.258 765.017 508.827 795.797 490.151 819.331C464.201 852.034 445.497 870.738 445.497 870.738L434.067 847.684C434.067 847.684 450.419 832.71 471.855 800.177C500.157 757.215 537.319 683.662 557.389 573.57C558.242 568.92 559.058 564.194 559.845 559.414C559.162 557.293 558.508 555.25 557.891 553.3C557.9 553.3 557.891 553.29 557.891 553.29C553.784 540.304 551.223 531.051 550.702 526.784C545.94 488.081 566.683 450.099 566.683 450.099L570.914 448.646C570.99 446.94 571.047 445.214 571.104 443.489H650.302C649.429 449.358 646.868 475.048 638.56 512.693C636.416 522.379 633.903 532.86 630.934 543.999L630.934 543.999Z" fill="#813829"/>
<path d="M639.565 518.235C643.235 538.439 647.674 562.825 652.976 591.984C677.589 727.363 705.067 850.909 705.067 850.909L699.812 852.485L669.584 861.578L657.842 865.105C657.842 865.105 621.752 772.001 590.367 679.292C589.248 681.861 588.1 684.422 586.943 686.981C545.855 777.486 499.341 828.96 499.341 828.96L490.151 819.331L471.854 800.177L468.184 796.332C468.184 796.332 523.935 721.972 555.397 566.126C550.047 545.714 546.386 528.378 545.229 516.03C542.052 481.94 563.62 451.205 569.529 443.489L651.658 443.489C650.576 449.716 647.541 478.264 639.565 518.234L639.565 518.235Z" fill="#19141E"/>
<path opacity="0.145368" fill-rule="evenodd" clip-rule="evenodd" d="M705.067 850.909L699.812 852.485L669.584 861.578L657.842 865.105C657.842 865.105 621.752 772.001 590.367 679.292C588.963 675.168 587.569 671.042 586.194 666.916C575.135 633.782 564.9 601.229 557.389 573.57C556.696 571.048 556.042 568.563 555.397 566.126C550.047 545.714 546.386 528.378 545.229 516.03C542.052 481.94 563.62 451.205 569.529 443.489H625.964C628.022 454.806 631.996 476.634 638.559 512.693C638.882 514.502 639.223 516.349 639.565 518.235C643.235 538.439 647.674 562.825 652.976 591.984C677.589 727.363 705.067 850.909 705.067 850.909Z" fill="white"/>
<path fill-rule="evenodd" clip-rule="evenodd" d="M621.524 302.15C619.882 300.717 618.814 299.972 618.814 299.972L582.8 298.133C582.8 298.133 585.868 306.069 589.115 316.118C595.535 335.984 610.762 340.449 624.032 340.426C636.425 340.407 640.636 328.788 632.581 315.321C628.861 309.1 624.345 304.611 621.524 302.15ZM508.478 507.114L513.739 528.792C513.739 528.792 514.144 533.725 513.883 539.445C513.878 539.541 513.874 539.637 513.869 539.732C513.862 539.892 513.855 540.051 513.847 540.208C513.601 545.49 513.435 549.031 515.95 557.657C517.786 563.953 509.018 560.849 506.988 557.181C506.238 555.828 505.877 553.154 505.502 550.376C504.828 545.391 504.109 540.068 501.021 541.416C496.212 543.514 492.611 557.29 491.425 570.629C491.238 572.725 489.408 574.186 488.201 574.615C486.244 575.313 484.954 566.758 484.954 566.758C484.954 566.758 483.54 569.486 480.869 567.861C479.925 567.286 477.812 561.28 477.812 561.28C477.812 561.28 475.919 558.194 475.189 554.955C473.9 549.234 473.766 538.953 474.667 536.071C476.717 529.517 480.648 518.687 484.503 512.503C484.349 495.291 484.063 427.639 488.935 415.155C494.527 400.827 504.647 381.618 504.647 381.618L534.662 401.456L518.563 427.227L508.478 507.114ZM650.365 445.001C648.356 429.227 650.158 408.858 650.158 408.858L675.816 393.76L682.307 431.306L708.755 513.361C713.948 519.396 720.466 527.12 721.398 528.928C722.976 531.995 725.898 547.177 725.759 550.176C725.619 553.175 716.518 566.654 716.518 566.654C710.871 565.286 714.56 558.326 714.56 558.326C714.56 558.326 709.501 562.554 707.398 562.483C687.595 561.815 688.657 551.903 689.124 550.662C690.176 547.875 695.462 551.063 695.462 551.063C695.462 551.063 685.108 530.297 687.818 516.019C679.398 502.478 651.968 457.594 650.365 445.001Z" fill="#813829"/>
<path opacity="0.146833" d="M699.506 523.86C699.506 523.86 702.285 534.237 711.822 537.471C715.157 538.601 714.324 551.949 722.499 550.352" stroke="black" stroke-width="3"/>
<path fill-rule="evenodd" clip-rule="evenodd" d="M589.115 316.118C586.101 306.792 583.243 299.286 582.847 298.254C572.571 298.21 561.742 299.809 550.204 307.15C534.554 317.102 511.081 348.379 494.252 378.713L545.654 408.667L553.92 396.248C553.92 396.248 562.251 407.284 564.561 422.072C566.332 433.378 565.444 442.567 565.444 442.567H647.758L654.702 411.858L685.992 400.697C683.732 373.306 670.735 327.49 653.553 311.56C644.528 303.192 634.783 301.25 619.134 300.204C620.665 301.346 627.396 306.651 632.581 315.321C640.636 328.788 636.425 340.407 624.032 340.427C610.762 340.449 595.535 335.984 589.115 316.118ZM587.707 298.383L589.392 298.47C588.832 298.438 588.27 298.409 587.707 298.383Z" fill="#318085"/>
<path opacity="0.204148" d="M648.154 443.184C651.293 403.778 672.04 394.478 656.385 350.284" stroke="black" stroke-width="4"/>
<path opacity="0.195638" d="M622.534 300.444C622.545 300.452 622.554 300.46 622.564 300.468C624.999 302.641 628.129 305.81 630.401 308.715C631.799 310.504 633.094 312.378 634.265 314.336C642.949 328.854 638.264 342.339 624.036 342.361C606.269 342.391 593.111 334.841 587.251 316.707C585.838 312.333 584.356 308.039 582.897 304.009C582.387 302.599 581.916 301.322 581.496 300.203C581.349 299.812 581.219 299.469 581.107 299.176C581.041 299.001 580.921 298.313 580.898 298.253H582.847C583.38 298.253 584.799 298.045 584.988 298.41C585.554 299.506 586.067 301.28 586.582 302.705C588.055 306.775 589.551 311.11 590.979 315.529C596.263 331.882 607.83 338.519 624.029 338.492C634.761 338.475 638.214 328.538 630.896 316.305C629.81 314.489 628.606 312.746 627.304 311.08C625.184 308.368 622.91 305.988 620.64 303.963C619.849 303.258 619.117 302.648 618.463 302.137C618.121 301.87 616.498 300.379 616.059 299.996L622.534 300.444Z" fill="black"/>
<path opacity="0.204148" d="M575.025 370.595L555.958 399.152" stroke="black" stroke-width="4"/>
</svg>
